<svg xmlns="http://www.w3.org/2000/svg" viewBox="0 0 553.27 657.31"><defs><style>.cls-1{opacity:0.3;}.cls-2{fill:#f29537;}</style></defs><title>arriereplanicon</title><g id="Calque_2" data-name="Calque 2"><g id="Calque_1-2" data-name="Calque 1"><g class="cls-1"><path class="cls-2" d="M46.11,276.46c0,127.35,103.1,230.39,230.52,230.39a230.44,230.44,0,0,0,217-152.24,227.94,227.94,0,0,0,11.18-44.73,234.75,234.75,0,0,0,2.4-32,.12.12,0,0,0-.12-.12H303.85c-11.93,0-22.35-9-23.1-20.91A22.37,22.37,0,0,1,303.07,233h246.7a.12.12,0,0,1,.12.1,277.77,277.77,0,0,1,3.38,43.35c0,.42,0,.85,0,1.27a276.06,276.06,0,0,1-276.62,275.2C123.73,552.93,0,429.27,0,276.46S123.73,0,276.63,0q5.55,0,11,.22L529.53,2A22.94,22.94,0,0,1,552.3,24.91h0a22.94,22.94,0,0,1-23.1,22.93L276.63,46.08C149.21,46.08,46.11,149.12,46.11,276.46Z"/><path class="cls-2" d="M469.09,91.92H263.92l1,.39A184.31,184.31,0,1,0,444,354.37a182.31,182.31,0,0,0,14.3-44.73H304a21.37,21.37,0,0,0-15.37,6.55A22.63,22.63,0,0,0,282.3,332c0,12.34,9.74,22.36,21.74,22.36h87A138.3,138.3,0,1,1,276.87,138H385.12l.25.09H529.46A23.08,23.08,0,0,0,552.54,115h0a23.09,23.09,0,0,0-23.08-23.08Z"/><circle class="cls-2" cx="225.85" cy="624.43" r="32.88"/><circle class="cls-2" cx="325.18" cy="624.43" r="32.88"/></g></g></g></svg>