<svg xmlns="http://www.w3.org/2000/svg" viewBox="0 0 56.51 59"><defs><style>.cls-1{fill:#0e3368;}.cls-2{fill:#fff;}.cls-3{fill:#f39637;}</style></defs><title>Fichier 4</title><g id="Calque_2" data-name="Calque 2"><g id="Calque_1-2" data-name="Calque 1"><g id="casque"><path class="cls-1" d="M28.25,39.89a11.08,11.08,0,0,0,10.4-7.14,1.5,1.5,0,0,0-2.79-1.08,8.14,8.14,0,0,1-15.21,0,1.5,1.5,0,0,0-2.79,1.08A11.07,11.07,0,0,0,28.25,39.89Z"/><path class="cls-2" d="M31.56,52.39H24.94a1.82,1.82,0,0,0,0,3.63h6.62a1.82,1.82,0,1,0,0-3.63Z"/><path class="cls-1" d="M28.25,39.89a11.08,11.08,0,0,0,10.4-7.14,1.5,1.5,0,0,0-2.79-1.08,8.14,8.14,0,0,1-15.21,0,1.5,1.5,0,0,0-2.79,1.08A11.07,11.07,0,0,0,28.25,39.89Z"/><path class="cls-2" d="M50.67,21.25H47l0,14.93,3.72,0a2.86,2.86,0,0,0,2.85-2.86V24.11A2.86,2.86,0,0,0,50.67,21.25Z"/><path class="cls-2" d="M3,24.11v9.23A2.86,2.86,0,0,0,5.84,36.2H9.53l0,0h0V21.28l-3.72,0A2.86,2.86,0,0,0,3,24.11Z"/><path class="cls-3" d="M52,18.44a24.56,24.56,0,0,0-47.52-.16.86.86,0,0,0,0,.16A5.85,5.85,0,0,0,0,24.12v9.23a5.84,5.84,0,0,0,5.85,5.84H9.53a3,3,0,0,0,3-3h0V21.28a3,3,0,0,0-3-3H7.62a21.54,21.54,0,0,1,41.22,0H47a3,3,0,0,0-3,3v14.9a3,3,0,0,0,3,3h2c-.6,8.9-7.07,12.55-13.09,13a4.79,4.79,0,0,0-4.37-2.83H24.94a4.8,4.8,0,1,0,0,9.6h6.62a4.81,4.81,0,0,0,4.7-3.81C44.07,54.53,51.48,49.4,52,39a5.84,5.84,0,0,0,4.5-5.68V24.1A5.84,5.84,0,0,0,52,18.44ZM9.56,21.28v14.9s0,0,0,0H5.84A2.86,2.86,0,0,1,3,33.34V24.11a2.86,2.86,0,0,1,2.85-2.86ZM31.56,56H24.94a1.82,1.82,0,0,1,0-3.63h6.62a1.82,1.82,0,1,1,0,3.63Zm22-22.68a2.86,2.86,0,0,1-2.86,2.86l-3.71,0,0-14.93h3.68a2.86,2.86,0,0,1,2.86,2.86Z"/><path class="cls-3" d="M28.25,39.89a11.08,11.08,0,0,0,10.4-7.14,1.5,1.5,0,0,0-2.79-1.08,8.14,8.14,0,0,1-15.21,0,1.5,1.5,0,0,0-2.79,1.08A11.07,11.07,0,0,0,28.25,39.89Z"/></g></g></g></svg>