<svg xmlns="http://www.w3.org/2000/svg" viewBox="0 0 43.56 45"><defs><style>.cls-1{fill:#f39637;}</style></defs><title>compteclienticon_1</title><g id="Calque_2" data-name="Calque 2"><g id="Calque_1-2" data-name="Calque 1"><path class="cls-1" d="M16.41,20.49A10.25,10.25,0,1,0,6.17,10.25,10.24,10.24,0,0,0,16.41,20.49Zm0-18.55A8.31,8.31,0,1,1,8.1,10.25,8.31,8.31,0,0,1,16.41,1.94Z"/><path class="cls-1" d="M43,26.22l-8.35-4.45a1,1,0,0,0-.93,0L26.12,26a16.19,16.19,0,0,0-9.73-3.17A16.08,16.08,0,0,0,4.78,27.68,17.26,17.26,0,0,0,0,39.88a1,1,0,0,0,1,1l27-.05a12.54,12.54,0,0,0,4.75,3.63l1.12.49a.88.88,0,0,0,.39.08,1,1,0,0,0,.39-.08l1.27-.55a12.57,12.57,0,0,0,7.7-11.58V27.08A1,1,0,0,0,43,26.22ZM2,38.9A15.15,15.15,0,0,1,6.18,29,14.13,14.13,0,0,1,16.4,24.74h0a14.17,14.17,0,0,1,8.71,2.92V32.9a12.53,12.53,0,0,0,1.51,6Zm39.65-6.11a10.63,10.63,0,0,1-6.53,9.8h0L34.2,43l-.74-.32a10.64,10.64,0,0,1-6.38-9.75V27.65l7.16-3.93,7.38,3.94Z"/><path class="cls-1" d="M31.58,32.27a1,1,0,1,0-1.47,1.26l2.2,2.57a1,1,0,0,0,.74.34,1,1,0,0,0,.61-.21l5.12-4.16a1,1,0,0,0,.13-1.37,1,1,0,0,0-1.36-.13l-4.39,3.56Z"/></g></g></svg>