<svg xmlns="http://www.w3.org/2000/svg" viewBox="0 0 24.64 24.64"><defs><style>.cls-1{fill:#333333;}</style></defs><title>facebook</title><g id="Calque_2" data-name="Calque 2"><g id="Calque_1-2" data-name="Calque 1"><path class="cls-1" d="M14.31,24.48l-.31.05Z"/><path class="cls-1" d="M14.55,24.44l-.14,0Z"/><path class="cls-1" d="M13.72,24.56l-.36,0Z"/><path class="cls-1" d="M14,24.53l-.17,0Z"/><path class="cls-1" d="M14.89,24.37l-.13,0Z"/><path class="cls-1" d="M15.72,24.16l-.1,0Z"/><path class="cls-1" d="M15.47,24.23l-.11,0Z"/><path class="cls-1" d="M15.14,24.32l-.12,0Z"/><path class="cls-1" d="M13.36,24.6h0Z"/><path class="cls-1" d="M24.64,12.32A12.32,12.32,0,1,0,12.32,24.64h.22V15.05H9.89V12h2.65V9.69a3.7,3.7,0,0,1,3.95-4.06,21.44,21.44,0,0,1,2.38.12V8.5H17.25c-1.28,0-1.53.61-1.53,1.5v2h3.06l-.4,3.09H15.72v9.11A12.32,12.32,0,0,0,24.64,12.32Z"/><path class="cls-1" d="M13.13,24.61l-.38,0Z"/><path class="cls-1" d="M12.74,24.63h0Z"/></g></g></svg>