<svg xmlns="http://www.w3.org/2000/svg" viewBox="0 0 88.19 75.11"><defs><style>.cls-1{fill:#f39637;}</style></defs><title>historiquedesachatsicon</title><g id="Calque_2" data-name="Calque 2"><g id="Calque_1-2" data-name="Calque 1"><path class="cls-1" d="M57.8,62.31l3.52,4.31a38.51,38.51,0,0,0,4.32-4.15l-4.17-3.7A32.28,32.28,0,0,1,57.8,62.31Z"/><path class="cls-1" d="M64.56,54.69l4.7,3a37.88,37.88,0,0,0,2.8-5.31L67,50.17A32,32,0,0,1,64.56,54.69Z"/><path class="cls-1" d="M5.07,56.39A37.55,37.55,0,0,0,56.39,70L53.6,65.23A32,32,0,1,1,69,31.66l-8.6-8.59L56.44,27,72.32,42.87,88.19,27l-3.93-3.93-9.53,9.52A37.53,37.53,0,1,0,5.07,56.39Z"/><polygon class="cls-1" points="36.16 12.52 36.16 40.33 26.14 47.84 29.48 52.29 41.72 43.11 41.72 12.52 36.16 12.52"/></g></g></svg>