<svg xmlns="http://www.w3.org/2000/svg" viewBox="0 0 24.64 24.64"><defs><style>.cls-1{fill:#333333;}</style></defs><title>instagram</title><g id="Calque_2" data-name="Calque 2"><g id="Calque_1-2" data-name="Calque 1"><path class="cls-1" d="M14.68,12.32A2.36,2.36,0,1,1,12.32,10,2.36,2.36,0,0,1,14.68,12.32Z"/><path class="cls-1" d="M17.84,8.15a2.37,2.37,0,0,0-.53-.82,2.21,2.21,0,0,0-.82-.52,3.73,3.73,0,0,0-1.31-.25c-.75,0-1,0-2.86,0s-2.11,0-2.86,0a3.73,3.73,0,0,0-1.31.25A2.22,2.22,0,0,0,6.81,8.15a3.73,3.73,0,0,0-.25,1.31c0,.75,0,1,0,2.86s0,2.11,0,2.86a3.73,3.73,0,0,0,.25,1.31,2.21,2.21,0,0,0,.52.82,2.37,2.37,0,0,0,.82.53,4.06,4.06,0,0,0,1.31.24c.75,0,1,0,2.86,0s2.11,0,2.86,0a4.06,4.06,0,0,0,1.31-.24,2.36,2.36,0,0,0,1.35-1.35,4.06,4.06,0,0,0,.24-1.31c0-.75,0-1,0-2.86s0-2.11,0-2.86A4.06,4.06,0,0,0,17.84,8.15ZM12.32,16A3.63,3.63,0,1,1,16,12.32,3.62,3.62,0,0,1,12.32,16ZM16.1,9.39A.85.85,0,1,1,17,8.54.85.85,0,0,1,16.1,9.39Z"/><path class="cls-1" d="M12.32,0A12.32,12.32,0,1,0,24.64,12.32,12.33,12.33,0,0,0,12.32,0Zm7,15.24A4.93,4.93,0,0,1,19,17,3.58,3.58,0,0,1,17,19a4.93,4.93,0,0,1-1.71.33c-.76,0-1,0-2.92,0s-2.16,0-2.92,0A4.93,4.93,0,0,1,7.69,19a3.37,3.37,0,0,1-1.26-.81A3.5,3.5,0,0,1,5.62,17a4.93,4.93,0,0,1-.33-1.71c0-.76,0-1,0-2.92s0-2.16,0-2.92a4.93,4.93,0,0,1,.33-1.71A3.53,3.53,0,0,1,7.69,5.62,4.93,4.93,0,0,1,9.4,5.29c.76,0,1,0,2.92,0s2.16,0,2.92,0A4.93,4.93,0,0,1,17,5.62,3.53,3.53,0,0,1,19,7.69a4.93,4.93,0,0,1,.33,1.71c0,.76,0,1,0,2.92S19.39,14.48,19.35,15.24Z"/></g></g></svg>