<svg xmlns="http://www.w3.org/2000/svg" viewBox="0 0 26.44 20.33"><defs><style>.cls-1{fill:#fff;}</style></defs><title>panier3</title><g id="Calque_2" data-name="Calque 2"><g id="Calque_1-2" data-name="Calque 1"><path class="cls-1" d="M13.22,10.17a.47.47,0,1,0-.51-.47A.49.49,0,0,0,13.22,10.17Z"/><path class="cls-1" d="M24.38,6.47H21.32L16.63.69A1.67,1.67,0,0,0,14.54.17a1.33,1.33,0,0,0-.61,1.89l0,0,3.69,4.36H8.79l3.68-4.36a.1.1,0,0,0,0,0,1.31,1.31,0,0,0-.6-1.89A1.66,1.66,0,0,0,9.82.69L5.12,6.47H2.07A2,2,0,0,0,0,8.32a1.89,1.89,0,0,0,1.4,1.75.58.58,0,0,0,.32.1h.07a.5.5,0,0,1,.44.38L4,19.19a1.5,1.5,0,0,0,1.52,1.14H20.93a1.52,1.52,0,0,0,1.53-1.14l1.75-8.64a.51.51,0,0,1,.44-.38h.07a.58.58,0,0,0,.32-.1,1.89,1.89,0,0,0,1.4-1.75A2,2,0,0,0,24.38,6.47ZM14.82,1.59A.45.45,0,0,1,15,1a.55.55,0,0,1,.7.18l0,.05,4.28,5.26H19Zm-4.15-.38,0-.05A.57.57,0,0,1,11.41,1a.44.44,0,0,1,.21.61L7.49,6.47H6.4Zm13.71,8H15.29a.49.49,0,0,0-.52.46.49.49,0,0,0,.52.46h8a1.41,1.41,0,0,0-.06.22L21.44,19a.5.5,0,0,1-.51.38H5.51A.51.51,0,0,1,5,19L3.24,10.38a.83.83,0,0,0-.06-.21h8a.47.47,0,1,0,0-.93H2.07a1,1,0,0,1-1-.92,1,1,0,0,1,1-.93H24.38a1,1,0,0,1,1,.93A1,1,0,0,1,24.38,9.24Z"/><path class="cls-1" d="M13.22,11.55a1.48,1.48,0,0,0-1.55,1.39v3.7A1.48,1.48,0,0,0,13.22,18a1.47,1.47,0,0,0,1.55-1.38v-3.7A1.47,1.47,0,0,0,13.22,11.55Zm.52,5.09a.52.52,0,0,1-1,0v-3.7a.52.52,0,0,1,1,0Z"/><path class="cls-1" d="M18.39,18a1.48,1.48,0,0,0,1.55-1.38v-3.7a1.56,1.56,0,0,0-3.1,0v3.7A1.47,1.47,0,0,0,18.39,18Zm-.52-5.08a.52.52,0,0,1,1,0v3.7a.52.52,0,0,1-1,0Z"/><path class="cls-1" d="M8.06,11.55a1.47,1.47,0,0,0-1.55,1.39v3.7A1.47,1.47,0,0,0,8.06,18a1.48,1.48,0,0,0,1.55-1.38v-3.7A1.48,1.48,0,0,0,8.06,11.55Zm.51,5.09a.52.52,0,0,1-1,0v-3.7a.52.52,0,0,1,1,0Z"/></g></g></svg>