<svg xmlns="http://www.w3.org/2000/svg" viewBox="0 0 60.6 60"><defs><style>.cls-1{fill:#f39637;}.cls-2{fill:#fff;}</style></defs><title>Fichier 6</title><g id="Calque_2" data-name="Calque 2"><g id="Calque_1-2" data-name="Calque 1"><path class="cls-1" d="M40.62,16.84a1.55,1.55,0,0,1-3.09,0V12.91H22.28v3.93a1.55,1.55,0,0,1-3.09,0V12.91H11.06l.41,8.42H48.34l.4-8.42H40.62Z"/><path class="cls-2" d="M48.34,21.33H11.47l1,21.09a7.51,7.51,0,0,0,7.06,7.91H32.11a12.5,12.5,0,0,1-1.16-5,14.23,14.23,0,0,1,.6-4.1A10.25,10.25,0,0,1,37,35l0,0a9.43,9.43,0,0,1,5.51-.78l1.85.3a8.7,8.7,0,0,0-2.82-6.07,1.55,1.55,0,1,1,2.14-2.23,13.25,13.25,0,0,1,2.62,3.6,8,8,0,0,1,1.46-1.66h0c.06-.06.14-.1.2-.16"/><path class="cls-1" d="M60.12,41.85A10.81,10.81,0,0,0,54.32,35c.15-.11.31-.2.45-.32a7.4,7.4,0,0,0,2.45-7.52A1.55,1.55,0,0,0,56,26.09a10,10,0,0,0-4.83.22l.71-14.88a1.54,1.54,0,0,0-1.47-1.61H40.58a10.71,10.71,0,0,0-21.35,0H9.44A1.54,1.54,0,0,0,7.9,11.36v.07l.75,15.63H1.16a1.16,1.16,0,1,0,0,2.32h7.6l.09,1.8H4.11a1.16,1.16,0,0,0,0,2.32H9L9,35.27H5.9a1.16,1.16,0,1,0,0,2.32H9.15l.24,4.9A10.56,10.56,0,0,0,19.54,53.41H33.89a24,24,0,0,0,5.4,5.52A5.91,5.91,0,0,0,42.69,60a8.76,8.76,0,0,0,3.07-.71,9,9,0,0,0,3.1.71,5.81,5.81,0,0,0,3.4-1.07c.85-.59,8.34-6,8.34-13.63A12.6,12.6,0,0,0,60.12,41.85ZM54.37,29a4.43,4.43,0,0,1-1.62,3.41,6.59,6.59,0,0,1-4.53,1.48,4.43,4.43,0,0,1,1.62-3.41A6.59,6.59,0,0,1,54.37,29ZM29.9,3.1a7.61,7.61,0,0,1,7.54,6.72H22.37A7.6,7.6,0,0,1,29.9,3.1ZM19.54,50.33a7.51,7.51,0,0,1-7.06-7.91L11.06,12.91h8.13v3.93a1.55,1.55,0,0,0,3.09,0V12.91H37.53v3.93a1.55,1.55,0,0,0,3.09,0V12.91h8.12L48,28l-.21.16h0a7.66,7.66,0,0,0-1.45,1.66,13.35,13.35,0,0,0-2.63-3.6,1.55,1.55,0,0,0-2.14,2.23,8.73,8.73,0,0,1,2.83,6.06l-1.86-.29a9.5,9.5,0,0,0-5.51.77l0,0a10.3,10.3,0,0,0-5.47,6.22A14,14,0,0,0,31,45.31a12.1,12.1,0,0,0,1.16,5Zm31,6.06a2.83,2.83,0,0,1-1.64.52,6,6,0,0,1-2-.49,3,3,0,0,0-2.26,0,6,6,0,0,1-2,.49,2.83,2.83,0,0,1-1.64-.52c-1.48-1-7-5.91-7-11.09a11.35,11.35,0,0,1,.45-3.17,7.23,7.23,0,0,1,3.85-4.36l0,0a6.43,6.43,0,0,1,3.72-.51l2.75.44a5.71,5.71,0,0,0,1.89,0l2.4-.41a6.37,6.37,0,0,1,3.58.43,7.8,7.8,0,0,1,4.44,5,9.54,9.54,0,0,1,.36,2.6C57.51,51.48,50.8,56.19,50.5,56.39Z"/><path class="cls-2" d="M41.05,56.39a2.83,2.83,0,0,0,1.64.52,6,6,0,0,0,2-.49,3,3,0,0,1,2.26,0,6,6,0,0,0,2,.49,2.83,2.83,0,0,0,1.64-.52c.29-.2,7-4.91,7-11.09a9.54,9.54,0,0,0-.36-2.6,7.79,7.79,0,0,0-4.44-5,6.37,6.37,0,0,0-3.58-.42l-2.4.4a5.71,5.71,0,0,1-1.89,0l-2.75-.44a6.44,6.44,0,0,0-3.72.52h0a7.23,7.23,0,0,0-3.85,4.36A11.37,11.37,0,0,0,34,45.3C34,50.48,39.57,55.37,41.05,56.39Z"/><path class="cls-2" d="M48.22,33.87a6.59,6.59,0,0,0,4.53-1.48A4.43,4.43,0,0,0,54.37,29a6.59,6.59,0,0,0-4.53,1.48A4.43,4.43,0,0,0,48.22,33.87Z"/></g></g></svg>