<svg xmlns="http://www.w3.org/2000/svg" viewBox="0 0 55.57 53.05"><defs><style>.cls-1{fill:#03a9f4;}.cls-2{fill:#283593;}</style></defs><title>paypalicon</title><g id="Calque_2" data-name="Calque 2"><g id="Calque_1-2" data-name="Calque 1"><path class="cls-1" d="M42.23,8.81a4.51,4.51,0,0,0-4.59-1,1.26,1.26,0,0,0-.85,1l-.36,2.43a7.48,7.48,0,0,1-7.38,6.41H24a1.27,1.27,0,0,0-1.23,1L19,33.79a1.27,1.27,0,0,0,.92,1.54,1.55,1.55,0,0,0,.31,0h6.31a1.26,1.26,0,0,0,1.23-1L30,25.26H35a8.2,8.2,0,0,0,8-6.24l.93-3.73A6.65,6.65,0,0,0,42.23,8.81Z"/><path class="cls-2" d="M1.26,50.52A1.27,1.27,0,0,1,0,49.26,1.06,1.06,0,0,1,0,49l1.26-5v-.05l1.26-5a1.26,1.26,0,0,1,1.23-1H7a3.15,3.15,0,0,1,3.16,3.16,3.29,3.29,0,0,1-.09.76l-.32,1.27a3.16,3.16,0,0,1-3.06,2.39H3.51l-1,4.09A1.26,1.26,0,0,1,1.26,50.52Zm2.88-7.58H6.69a.63.63,0,0,0,.61-.48l.31-1.26a.63.63,0,0,0-.45-.77l-.16,0H4.78Z"/><path class="cls-2" d="M14.77,50.52H13A3.5,3.5,0,0,1,9.47,47a3.47,3.47,0,0,1,.1-.85h0l.17-.67A3.36,3.36,0,0,1,13,42.94h1.8a3.5,3.5,0,0,1,3.5,3.51,3.46,3.46,0,0,1-.11.84l-.16.67A3.38,3.38,0,0,1,14.77,50.52ZM12,46.78A1,1,0,0,0,12.74,48,.85.85,0,0,0,13,48h1.8a.84.84,0,0,0,.82-.64l.17-.67a1,1,0,0,0-.71-1.18,1,1,0,0,0-.24,0H13a.86.86,0,0,0-.83.64Z"/><path class="cls-2" d="M16.42,50.52a1.26,1.26,0,0,1-1.26-1.26,1.55,1.55,0,0,1,0-.31l1.27-5.05a1.26,1.26,0,0,1,2.45.61l-1.26,5.05A1.26,1.26,0,0,1,16.42,50.52Z"/><path class="cls-1" d="M31.57,50.52a1.27,1.27,0,0,1-1.26-1.26,1.06,1.06,0,0,1,0-.31l1.26-5v-.05l1.27-5a1.25,1.25,0,0,1,1.22-1h3.21a3.15,3.15,0,0,1,3.16,3.16,3.29,3.29,0,0,1-.09.76l-.32,1.27A3.16,3.16,0,0,1,37,45.47H33.82l-1,4.09A1.26,1.26,0,0,1,31.57,50.52Zm2.89-7.58H37a.63.63,0,0,0,.61-.48l.32-1.26a.64.64,0,0,0-.46-.77l-.15,0H35.09Z"/><path class="cls-1" d="M45.08,50.52h-1.8a3.5,3.5,0,0,1-3.5-3.5,4,4,0,0,1,.1-.85h0l.17-.67a3.37,3.37,0,0,1,3.29-2.56h1.79a3.51,3.51,0,0,1,3.51,3.5,3.48,3.48,0,0,1-.11.85l-.17.67A3.36,3.36,0,0,1,45.08,50.52Zm-2.74-3.74A1,1,0,0,0,43.05,48a.85.85,0,0,0,.23,0h1.8a.84.84,0,0,0,.82-.64l.17-.67a1,1,0,0,0-.71-1.18l-.23,0h-1.8a.86.86,0,0,0-.83.64Z"/><path class="cls-1" d="M46.73,50.52a1.26,1.26,0,0,1-1.26-1.26,1.55,1.55,0,0,1,0-.31l1.27-5.05a1.26,1.26,0,0,1,2.45.61h0L48,49.56A1.26,1.26,0,0,1,46.73,50.52Z"/><path class="cls-2" d="M24,49.26A1.26,1.26,0,0,1,23,48.69L20.42,44.9a1.26,1.26,0,1,1,2.1-1.4l2.53,3.79a1.27,1.27,0,0,1-1.05,2Z"/><path class="cls-2" d="M21.47,53.05a1.27,1.27,0,0,1-1-2.08l6.32-7.57A1.26,1.26,0,0,1,28.76,45h0l-6.32,7.58A1.27,1.27,0,0,1,21.47,53.05Z"/><path class="cls-1" d="M51.78,50.52a1.26,1.26,0,0,1-1.26-1.26,1.06,1.06,0,0,1,0-.31l2.52-10.1a1.27,1.27,0,0,1,2.46.61h0L53,49.56A1.26,1.26,0,0,1,51.78,50.52Z"/><path class="cls-2" d="M38.06,2.18A6.4,6.4,0,0,0,33.24,0H18.94A1.26,1.26,0,0,0,17.7,1l-5,27.78a1.26,1.26,0,0,0,1,1.47l.22,0h7.58a1.26,1.26,0,0,0,1.23-1L25,20.21h4.07a10,10,0,0,0,9.89-8.59l.63-4.32h0A6.45,6.45,0,0,0,38.06,2.18Z"/></g></g></svg>