<svg xmlns="http://www.w3.org/2000/svg" viewBox="0 0 28 28"><defs><style>.cls-1{fill:#f29537;}</style></defs><title>tel</title><g id="Calque_2" data-name="Calque 2"><g id="Calque_1-2" data-name="Calque 1"><path class="cls-1" d="M27.27,21.6,21.6,17.82a1.67,1.67,0,0,0-2.22.36L17.73,20.3a.7.7,0,0,1-.9.19l-.32-.17a19,19,0,0,1-4.94-3.88,19.14,19.14,0,0,1-3.89-5l-.17-.31a.71.71,0,0,1,.19-.91L9.82,8.62a1.67,1.67,0,0,0,.36-2.22L6.4.73A1.64,1.64,0,0,0,4.18.24L1.81,1.66a3.36,3.36,0,0,0-1.52,2C-.57,6.75.08,12.11,8,20c6.29,6.29,11,8,14.19,8a8.08,8.08,0,0,0,2.19-.29,3.36,3.36,0,0,0,2-1.52l1.43-2.37A1.66,1.66,0,0,0,27.27,21.6ZM27,23.34l-1.42,2.37a2.38,2.38,0,0,1-1.42,1.1c-2.87.79-7.89.14-15.48-7.45S.4,6.76,1.19,3.88a2.38,2.38,0,0,1,1.1-1.42L4.66,1a.71.71,0,0,1,1,.21L7.68,4.34,9.4,6.92a.71.71,0,0,1-.16,1L7.12,9.53a1.64,1.64,0,0,0-.43,2.1l.17.31a20.12,20.12,0,0,0,4,5.16,20.12,20.12,0,0,0,5.16,4l.31.17a1.64,1.64,0,0,0,2.1-.43l1.65-2.12a.71.71,0,0,1,1-.16l5.67,3.78A.71.71,0,0,1,27,23.34Z"/></g></g></svg>