<svg xmlns="http://www.w3.org/2000/svg" viewBox="0 0 53 39.34"><defs><style>.cls-1{fill:#ec9135;}</style></defs><title>truck2icon</title><g id="Calque_2" data-name="Calque 2"><g id="Calque_1-2" data-name="Calque 1"><path class="cls-1" d="M44.72,31.05a2.08,2.08,0,1,0,2.07,2.08A2.07,2.07,0,0,0,44.72,31.05Z"/><path class="cls-1" d="M43.68,22.77a1,1,0,1,0,1,1A1,1,0,0,0,43.68,22.77Z"/><path class="cls-1" d="M13,31.05a2.08,2.08,0,1,0,2.07,2.08A2.08,2.08,0,0,0,13,31.05Z"/><path class="cls-1" d="M48.65,18.7l-1.79-7.14a3.06,3.06,0,0,0,1-2.24,3.1,3.1,0,0,0-3.1-3.11H36.44V3.11A3.11,3.11,0,0,0,33.33,0H3.11A3.11,3.11,0,0,0,0,3.11V30a3.11,3.11,0,0,0,3.11,3.11H6.83a6.21,6.21,0,0,0,12.42,0H38.51a6.21,6.21,0,0,0,12.42,0V33A3.12,3.12,0,0,0,53,30V23.81A5.19,5.19,0,0,0,48.65,18.7ZM45,12.42l1.55,6.21H37.9l2.37-2.37a1,1,0,1,0-1.46-1.46l-2.37,2.37V12.42Zm.8-3.1a1,1,0,0,1-1,1H36.44V8.28h8.28A1,1,0,0,1,45.75,9.32ZM13,37.27a4.15,4.15,0,1,1,4.14-4.14A4.15,4.15,0,0,1,13,37.27Zm5.86-6.22a6.21,6.21,0,0,0-11.71,0H3.11a1,1,0,0,1-1-1V3.11a1,1,0,0,1,1-1H33.33a1,1,0,0,1,1,1V31.05Zm25.82,6.22a4.15,4.15,0,1,1,4.14-4.14A4.15,4.15,0,0,1,44.72,37.27Zm5.78-6.41a6.21,6.21,0,0,0-11.64.19H36.44V20.7H47.82a3.12,3.12,0,0,1,2.93,2.07H47.82a1,1,0,0,0,0,2.07h3.11V30A1,1,0,0,1,50.5,30.86Z"/><path class="cls-1" d="M18.22,6.21a9.32,9.32,0,1,0,9.32,9.32A9.33,9.33,0,0,0,18.22,6.21Zm0,16.56a7.25,7.25,0,1,1,7.24-7.24A7.25,7.25,0,0,1,18.22,22.77Z"/><path class="cls-1" d="M22.36,14.49H19.25v-3.1a1,1,0,1,0-2.07,0v4.14a1,1,0,0,0,1,1h4.14a1,1,0,0,0,0-2.07Z"/></g></g></svg>