<svg xmlns="http://www.w3.org/2000/svg" viewBox="0 0 24.7 24.7"><defs><style>.cls-1{fill:#333333;}</style></defs><title>youtube</title><g id="Calque_2" data-name="Calque 2"><g id="Calque_1-2" data-name="Calque 1"><path class="cls-1" d="M10.81,14.67l4-2.32-4-2.31Z"/><path class="cls-1" d="M12.35,0A12.35,12.35,0,1,0,24.7,12.35,12.35,12.35,0,0,0,12.35,0Zm7.72,12.36a20.32,20.32,0,0,1-.32,3.72,1.94,1.94,0,0,1-1.36,1.36,48.16,48.16,0,0,1-6,.31,45.35,45.35,0,0,1-6-.33A1.93,1.93,0,0,1,5,16.06a20.12,20.12,0,0,1-.32-3.71A20.23,20.23,0,0,1,5,8.64,2,2,0,0,1,6.31,7.27a46.67,46.67,0,0,1,6-.32,45.27,45.27,0,0,1,6,.33,1.94,1.94,0,0,1,1.36,1.36A19.43,19.43,0,0,1,20.07,12.36Z"/></g></g></svg>