<svg xmlns="http://www.w3.org/2000/svg" viewBox="0 0 40 40"><title>Artboard 65</title><g id="editable"><rect x="-0.005" width="40" height="40" rx="4" ry="4" style="fill:#27add6"/><path d="M29.511,3.584c-.655.061-1.317.067-1.976.149A20.93,20.93,0,0,0,20.2,5.981a15.537,15.537,0,0,0-5.2,4.4,14.229,14.229,0,0,0-1.332,2.122c-.1.2-.2.263-.375.071a3.555,3.555,0,0,0-.369-.323,6.8,6.8,0,0,0-2.877-1.545A2.261,2.261,0,0,0,9.2,10.7a14.406,14.406,0,0,1,2.754,2.571,8.3,8.3,0,0,1,1.69,3.314C16.425,9.156,21.939,5.121,29.511,3.584ZM16.525,15.119a30,30,0,0,0,3.671-.313,16.2,16.2,0,0,0,5.774-1.954A9.471,9.471,0,0,0,30.036,8.4a4.592,4.592,0,0,0,.353-1.146c-.123.087-.2.136-.269.191a8.926,8.926,0,0,1-1.934,1.164,4.163,4.163,0,0,1-1.816.424,1.453,1.453,0,0,1-1.529-1.853c.042-.255.128-.5.2-.79a1.64,1.64,0,0,0-.523.554,1.9,1.9,0,0,0-.167,2.171,1.929,1.929,0,0,0,2.056.8,5.976,5.976,0,0,0,1.911-.7.963.963,0,0,1,.375-.161,3.891,3.891,0,0,1-.662.965,10.83,10.83,0,0,1-3.51,2.538A28.31,28.31,0,0,1,18.781,14.6C18.045,14.781,17.3,14.939,16.525,15.119Zm11.59-9.213a.666.666,0,0,0-.654-.685.632.632,0,0,0-.651.653.653.653,0,1,0,1.3.032Z" style="fill:#fff"/><text transform="translate(3.791 29.482) scale(1.029 1)" style="font-size:9.905329704284668px;fill:#fff;font-family:Ubuntu-Bold, Ubuntu;font-weight:700">PÊCHE</text><text transform="translate(3.795 34.898) scale(1.029 1)" style="font-size:4.380420207977295px;fill:#fff;font-family:Ubuntu-Bold, Ubuntu;font-weight:700">RESPONSABLE</text></g></svg>