<svg xmlns="http://www.w3.org/2000/svg" xmlns:xlink="http://www.w3.org/1999/xlink" viewBox="0 0 40 40"><defs><style>.a{fill:#fff;}.b{fill:#e5e5e5;}.c{fill:#0f265c;}.d{fill:#e20613;}.e{fill:url(#a);}.f{fill:url(#b);}.g{fill:url(#c);}</style><linearGradient id="a" x1="27.4172" y1="14.66872" x2="27.4172" y2="22.24523" gradientUnits="userSpaceOnUse"><stop offset="0" stop-color="#e20613"/><stop offset="1" stop-color="#9b1006"/></linearGradient><linearGradient id="b" x1="12.15935" y1="10.68218" x2="12.15935" y2="24.32096" gradientUnits="userSpaceOnUse"><stop offset="0" stop-color="#0056a3"/><stop offset="1" stop-color="#0f265c"/></linearGradient><linearGradient id="c" x1="23.77402" y1="12.91505" x2="23.77402" y2="20.38923" gradientUnits="userSpaceOnUse"><stop offset="0" stop-color="#9c1006"/><stop offset="1" stop-color="#7b0f00"/></linearGradient></defs><title>flag-common-vf</title><rect class="a" x="0.5" y="0.49988" width="39" height="39" rx="3.5" ry="3.5"/><path class="b" d="M36,1a3.00342,3.00342,0,0,1,3,3V36a3.00342,3.00342,0,0,1-3,3H4a3.00342,3.00342,0,0,1-3-3V4A3.00341,3.00341,0,0,1,4,1H36m0-1H4A3.99994,3.99994,0,0,0,0,4V36a3.99994,3.99994,0,0,0,4,4H36a4,4,0,0,0,4-4V4a4,4,0,0,0-4-4Z"/><path class="a" d="M5.05527,15.44781s7.8287-.10807,16.1276-10.64664c0,0,.40358,7.37534,13.70931,12.11814a20.64345,20.64345,0,0,0-5.40963,18.181s-10.69923-6.51272-19.8922-1.186c0,0,2.84219-12.01127-4.53508-18.46649"/><path class="c" d="M20.9053,5.848l-.71862,1.19319s4.05055,7.44427,12.341,9.12121c0,0-8.53059-2.7393-11.62243-10.3144"/><path class="c" d="M10.0649,33.19126l1.30167-.49649s1.40017-8.3583-4.09282-14.79c0,0,5.10695,6.89235,2.79115,15.28653"/><path class="c" d="M34.966,16.91931l-1.35071-.33818s-5.934,6.0509-5.11332,14.46862c0,0,.12522-8.95808,6.464-14.13044"/><path class="d" d="M28.49274,34.13881l-.10887-1.38859s-7.62333-3.70281-15.34436-.24886c0,0,8.53377-2.72934,15.45323,1.63745"/><path class="c" d="M6.15873,16.48342c1.25739-.23887,8.57644-1.88628,12.58113-8.47873,0,0-5.39408,6.99005-13.47044,7.42153-.11526.00837-.17667.00959-.17667.00959a13.05953,13.05953,0,0,1,1.066,1.04761"/><path class="e" d="M21.76031,10.07162v.00161l.0004.00158c.01874.10888.17906.65444.38524,1.48591l.002.00879.00519.02032c.09411.38047.1974.81918.30069,1.30246a2.72386,2.72386,0,0,1,1.05241.50448,2.18375,2.18375,0,0,1,.54-.12562,1.29979,1.29979,0,0,1,.1619-.01037c.42752,0,.83907.20378.88014.35892a.18294.18294,0,0,1,.006.04192v.00757c-.00319.16865-.21655.3856-.31385.59694a1.62848,1.62848,0,0,0-.27357,1.10946c-.10529,3.59829-1.36229,4.99088-1.36229,4.99088,0-2.02585.41156-3.30119-.39121-5.92126a21.48919,21.48919,0,0,1,.22213,6.87519c.80038-.07419,1.57284-.1033,2.29147-.1033a25.38039,25.38039,0,0,1,4.47725.37608A21.27246,21.27246,0,0,1,33.07488,16.621a19.71518,19.71518,0,0,1-11.31536-6.55178l.00079.00238"/><path class="f" d="M6.662,16.74744c3.06473,2.71019,4.44655,7.57352,4.44655,7.57352a33.2702,33.2702,0,0,1,5.371-1.85841,20.61112,20.61112,0,0,0,.60337-11.78037A19.98751,19.98751,0,0,1,6.662,16.74744"/><path class="g" d="M22.75331,14.44521c.80277,2.62007.39121,3.895.39121,5.92126,0,0,1.257-1.39259,1.36229-4.99088a1.62848,1.62848,0,0,1,.27357-1.10946c.0973-.21134.31066-.42829.31385-.597v-.00757a.18291.18291,0,0,0-.006-.04187c-.04107-.15514-.45262-.35892-.88014-.35892a1.29979,1.29979,0,0,0-.1619.01037,2.18375,2.18375,0,0,0-.54.12562,2.72386,2.72386,0,0,0-1.05241-.50448c.10248.479.205,1.00058.29949,1.55292"/><path class="c" d="M13.95553,26.77394h-.1304a.30905.30905,0,0,1-.28873-.17513,4.81937,4.81937,0,0,1-.68592-1.82845h.30627a.31958.31958,0,0,1,.321.252,4.86491,4.86491,0,0,0,.33618,1.00736,5.08283,5.08283,0,0,0,.39082-1.2594h.27755a.227.227,0,0,1,.24606.22651,2.027,2.027,0,0,1-.12163.43866,6.067,6.067,0,0,1-.65123,1.33841"/><path class="c" d="M15.906,26.797a.9425.9425,0,0,1-.9611-1.01054A.9688.9688,0,0,1,15.967,24.72375a1.03829,1.03829,0,0,1-.061,2.07331m.006-1.6311c-.27158,0-.41675.2325-.41675.56589,0,.41912.16191.61971.463.61971.24925,0,.41714-.20692.41714-.57142,0-.4335-.15673-.61415-.46339-.61415"/><path class="c" d="M18.25652,26.77394h-.2317c-.50647,0-.72381-.25244-.72381-.75258v-1.251h.2317c.21733,0,.31864.11126.31864.33538v.87855c0,.25842.06938.33616.31823.33616h.08694a1.33792,1.33792,0,0,0,.42272-.06022h.01436v.18665c0,.20059-.122.32706-.43708.32706"/><path class="c" d="M20.47062,26.75077c-.2002,0-.30428-.05745-.339-.2353-.01436-.07139-.0315-.14955-.055-.23289H19.3879c-.04347.144-.07817.345-.10129.46819h-.22254a.22443.22443,0,0,1-.25483-.24448,4.06553,4.06553,0,0,1,.72621-1.73635h.21375a.43877.43877,0,0,1,.38882.20658,5.5602,5.5602,0,0,1,.581,1.77425m-.981-1.4871a3.49754,3.49754,0,0,0-.2317.591h.45742a3.83553,3.83553,0,0,0-.22572-.591"/><path class="c" d="M21.27737,26.75077a.27566.27566,0,0,1-.25443-.30669V24.76994H21.33a.2536.2536,0,0,1,.24247.25565v1.72518"/><path class="c" d="M22.99139,26.77394h-.2317c-.50686,0-.72341-.25244-.72341-.75258v-1.251h.23091c.21693,0,.31822.11126.31822.33538v.87855c0,.25842.0698.33616.319.33616h.08694a1.33238,1.33238,0,0,0,.42193-.06022h.01515v.18665c0,.20059-.12244.32706-.43708.32706"/><path class="c" d="M24.65835,26.77394h-.23171c-.50606,0-.72341-.25244-.72341-.75258v-1.251h.2317c.21654,0,.31784.11126.31784.33538v.87855c0,.25842.06939.33616.31864.33616h.08694a1.33514,1.33514,0,0,0,.42232-.06022h.01515v.18665c0,.20059-.12243.32706-.43747.32706"/><path class="c" d="M26.36558,26.77628h-.22571a.72284.72284,0,0,1-.81314-.81229v-.333a3.82628,3.82628,0,0,1,.03469-.534.34376.34376,0,0,1,.38484-.327h1.08831v.12923a.29152.29152,0,0,1-.333.31545h-.60776a3.32873,3.32873,0,0,0-.02074.33616h.77326v.19782c0,.14356-.10728.22413-.30109.22413h-.47217v.07178c0,.21215.06979.28673.34735.28673h.14516a1.82422,1.82422,0,0,0,.46579-.05423v.20976c0,.181-.11246.28951-.46579.28951"/><path class="c" d="M12.95855,27.95192h-.532v.37053h.70264c-.00275.07733,0,.16943,0,.16943a.23441.23441,0,0,1-.23729.24691h-.45422v.74609h-.266c-.17427,0-.29231-.08534-.29231-.26918V27.86344c0-.24448.136-.35931.40277-.35931h.96589v.19258a.26866.26866,0,0,1-.28953.25521"/><path class="c" d="M14.90107,29.49965a.35988.35988,0,0,1-.35931-.20938l-.14755-.32182c-.07817-.1691-.1328-.20054-.26361-.21814l-.08614-.00877v.74334H13.8327a.30433.30433,0,0,1-.33858-.31224V27.5615a2.44175,2.44175,0,0,1,.599-.08573H14.316c.42871,0,.73258.2325.73258.5914a.53862.53862,0,0,1-.36489.53079c.09571.04347.14436.11486.22053.27278l.15274.32144a1.48136,1.48136,0,0,0,.13918.24165v.014a.7007.7007,0,0,1-.29511.05184m-.74694-1.59318a.944.944,0,0,0-.10967.01115v.43664a1.75274,1.75274,0,0,0,.21934.00847.22472.22472,0,0,0,.23489-.22972.20363.20363,0,0,0-.2317-.22651Z"/><path class="c" d="M16.98716,29.48488c-.1994,0-.30388-.05657-.33858-.23523-.01435-.07144-.0319-.14879-.05463-.2325h-.68871c-.04348.14393-.07857.3449-.1017.46773h-.22292a.22427.22427,0,0,1-.25483-.24326,4.07044,4.07044,0,0,1,.7266-1.73754h.21454a.43655.43655,0,0,1,.38724.207,5.52277,5.52277,0,0,1,.58223,1.77384M16.255,27.99819a3.59346,3.59346,0,0,0-.23169.5914h.45741a3.83566,3.83566,0,0,0-.22572-.5914"/><path class="c" d="M19.04493,29.48488c-.22572,0-.41076-.09729-.59061-.41832l-.33817-.60936c-.06381-.11167-.09891-.19222-.09891-.19222v1.2199h-.22492a.29907.29907,0,0,1-.31065-.30387V27.50408h.26639a.65623.65623,0,0,1,.62291.40758l.24287.47653.12721.24168V27.50408h.24326a.269.269,0,0,1,.27792.25562v1.72518"/><path class="c" d="M23.08231,29.48488c-.19979,0-.30388-.05657-.339-.23523-.014-.07144-.03151-.14879-.05465-.2325h-.68911c-.04346.14393-.07816.3449-.1017.46773h-.22252a.22379.22379,0,0,1-.25443-.24326,4.06554,4.06554,0,0,1,.7266-1.73754h.21411a.439.439,0,0,1,.38807.207,5.5542,5.5542,0,0,1,.58145,1.77384m-.98143-1.48669a3.52233,3.52233,0,0,0-.23131.5914h.457a3.79815,3.79815,0,0,0-.22571-.5914"/><path class="c" d="M23.88947,29.48488a.27516.27516,0,0,1-.25443-.30667V27.50413h.30628a.25426.25426,0,0,1,.24366.25557v1.72518"/><path class="c" d="M25.28126,29.53154c-.44027,0-.67755-.16669-.67755-.451v-.19541h.01555a.93668.93668,0,0,0,.61334.20135c.25443,0,.33539-.06061.33539-.19222,0-.12085-.10967-.16111-.414-.22133-.43428-.08614-.60178-.24406-.60178-.54556a.74425.74425,0,0,1,.83069-.66917c.49212,0,.67994.22133.67994.42511v.20937h-.01395a.86709.86709,0,0,0-.58184-.189c-.27277,0-.3649.07178-.3649.18385,0,.08847.0375.13752.408.21171.41075.08375.60816.25049.60816.5571,0,.41077-.30469.67516-.83707.67516"/><path class="c" d="M27.4842,29.51121h-.22612a.72312.72312,0,0,1-.81354-.81275v-.333a3.75945,3.75945,0,0,1,.0355-.534.34372.34372,0,0,1,.38443-.3274h1.08831v.12961a.29175.29175,0,0,1-.3326.31623h-.60776a3.30674,3.30674,0,0,0-.02033.33539h.77285v.1982c0,.14359-.10731.22418-.30153.22418h-.47136v.07136c0,.21257.06943.28754.34695.28754h.1452a1.80485,1.80485,0,0,0,.46539-.05548v.21062c0,.18066-.11247.28951-.46539.28951"/><path class="c" d="M20.69195,27.92921a.78444.78444,0,0,1,.57027.20378h.01436v-.20378c0-.27838-.23131-.471-.62252-.471a1.02548,1.02548,0,0,0-1.07354,1.0564.98687.98687,0,0,0,.788.98941l-.17626.35452-.00359.00441.00079.00039-.00757.01594.315.1161.21735-.463.00518-.00677c.3342-.02952.54794-.21176.54794-.44506v-.20378h-.01434a.84833.84833,0,0,1-.54994.18345.53947.53947,0,0,1-.57307-.597.52441.52441,0,0,1,.5619-.534"/><path class="d" d="M18.85032,24.05013c-.15474,0-.75491-1.00251-.79081-1.17764-.014-.07137.01317-.09885.03829-.10922l.063-.00881a7.86,7.86,0,0,1,1.80174.36769l.01117.05384c-.01476.05143-.079.05542-.138.05542a9.90148,9.90148,0,0,1-1.0249-.13837,4.99406,4.99406,0,0,1,1.07116.67474l-.01635.05065-.05065.01835a8.79311,8.79311,0,0,1-1.29089-.61413c.37208.61812.3956.79318.36409.81591"/><path class="d" d="M20.43314,22.83182c-.136,0-.74415-.646-.76968-.75251a.05953.05953,0,0,1,.02951-.071l.06261-.00838a11.004,11.004,0,0,1,1.79657.2373l.00279.05184c-.01715.03388-.053.03948-.1324.03948-.152,0-.59819-.04466-.87376-.0718.72062.23768.91.34257.914.37487l-.02632.05384-.04068.00922a12.62549,12.62549,0,0,1-1.22788-.36369c.16869.177.34495.38718.33418.44465l-.04108.051"/><path class="a" d="M18.80008,21.8488l-.0355-.00119c-2.4757-.01436-4.07447-1.53576-4.421-4.175a4.51131,4.51131,0,0,0-.74135-2.29306.54854.54854,0,0,1,.36807-.95509h.01955a3.16055,3.16055,0,0,1,.9252.17866.54817.54817,0,0,1,.54794-.57388l.05863.0028a3.46428,3.46428,0,0,1,2.366,1.33556,6.2041,6.2041,0,0,0,.78443.80238c.68433.54394,1.94651.37088,2.38439.412a.54887.54887,0,0,1,.49131.463,9.58628,9.58628,0,0,0,.37127-1.09634,2.45684,2.45684,0,0,1-.55153.06625,1.81292,1.81292,0,0,1-.70666-.13684,1.69953,1.69953,0,0,1-.796-.6245h-.004a.841.841,0,0,1-.47577-.14117.54828.54828,0,0,1-.16869-.70906c.10808-.201,1.09788-1.96364,2.57142-1.96364a1.77251,1.77251,0,0,1,.18943.01,2.5592,2.5592,0,0,1,1.39258.65442,2.19713,2.19713,0,0,1,.54794-.08614c.48294-.02792.97984.24528,1.01413.42272.03351.17708-.2305.39879-.35413.62253a1.62843,1.62843,0,0,0-.35252,1.08711,7.33817,7.33817,0,0,1-1.64742,4.98889,4.99242,4.99242,0,0,1-3.77019,1.70964"/><path class="d" d="M23.34911,13.75569a2.2252,2.2252,0,0,0-1.32239-.7601c-1.25262-.13241-2.21969,1.66775-2.21969,1.66775s.21614.15155.51683-.12043c0,0-.09092.51524.65681.82988a2.16739,2.16739,0,0,0,1.6889-.266A3.67917,3.67917,0,0,1,17.87926,19.391,2.34574,2.34574,0,0,1,16.62905,17.226a7.95466,7.95466,0,0,0,4.48322-.09771,4.12576,4.12576,0,0,1-2.67469-.5284c-.9619-.76449-1.51861-1.8783-2.86733-2.02228a2.30174,2.30174,0,0,1,.30588,1.133,3.14342,3.14342,0,0,0-1.79857-.73737,4.80231,4.80231,0,0,1,.91722,2.63049,3.68488,3.68488,0,0,0,3.91257,3.696l-.00041.00124c3.46951-.04829,5.1269-3.82926,4.87844-6.10557a2.04113,2.04113,0,0,1,.50129-1.509l.0646-.06545a1.18378,1.18378,0,0,0-1.00216.1348m-2.26834.4993s.97545-1.02766,1.09788.08492Z"/></svg>