<svg xmlns="http://www.w3.org/2000/svg" viewBox="0 0 106.94 38.64"><defs><style>.cls-1{fill:#f39637;}</style></defs><title>Fichier 9</title><g id="Calque_2" data-name="Calque 2"><g id="Calque_1-2" data-name="Calque 1"><path class="cls-1" d="M2.71,16.25a13.55,13.55,0,0,0,27,2,14.75,14.75,0,0,0,.15-1.89h-12a1.34,1.34,0,0,1-1.35-1.23,1.29,1.29,0,0,1,.38-1,1.31,1.31,0,0,1,.93-.38H32.33a16.55,16.55,0,0,1,.2,2.55v.08a16.46,16.46,0,0,1-.66,4.52A16.26,16.26,0,1,1,16.26,0h.65L31.13.12a1.34,1.34,0,0,1,1.34,1.34h0a1.35,1.35,0,0,1-1.36,1.35l-14.85-.1A13.54,13.54,0,0,0,2.71,16.25Z"/><path class="cls-1" d="M27.58,5.4H15.52l.06,0A10.83,10.83,0,1,0,26.1,20.83a10.5,10.5,0,0,0,.84-2.63H17.87a1.25,1.25,0,0,0-.9.39,1.34,1.34,0,0,0-.37.93,1.29,1.29,0,0,0,1.27,1.31H23A8.13,8.13,0,1,1,16.28,8.11H31.13a1.35,1.35,0,0,0,1.35-1.36h0A1.35,1.35,0,0,0,31.13,5.4Z"/><line class="cls-1" x1="14.97" y1="19.28" x2="14.32" y2="19.28"/><path class="cls-1" d="M51.72,23.7c0,6.41-4.44,9.2-8.62,9.2-4.69,0-8.31-3.44-8.31-8.91,0-5.8,3.8-9.2,8.59-9.2C48.36,14.79,51.72,18.41,51.72,23.7ZM38,23.88c0,3.79,2.18,6.66,5.26,6.66s5.26-2.83,5.26-6.73c0-2.93-1.47-6.66-5.19-6.66S38,20.59,38,23.88Z"/><path class="cls-1" d="M67.81,30.86A1.21,1.21,0,0,1,67,32.28a13.06,13.06,0,0,1-3.93.58c-5.23,0-8.63-3.54-8.63-8.84s3.65-9.19,9.31-9.19a11.49,11.49,0,0,1,3.22.46,1.21,1.21,0,0,1,.83,1.5l0,.07a1.22,1.22,0,0,1-1.51.82,8.4,8.4,0,0,0-2.52-.35c-4,0-6.12,2.94-6.12,6.55,0,4,2.57,6.48,6,6.48A8.71,8.71,0,0,0,66.28,30a1.2,1.2,0,0,1,1.53.89Z"/><path class="cls-1" d="M73.3,7.1h0a1.57,1.57,0,0,1,1.58,1.57v9.24H75a5.79,5.79,0,0,1,2.25-2.22,6.45,6.45,0,0,1,3.22-.9c2.33,0,6,1.43,6,7.41v8.73a1.57,1.57,0,0,1-1.57,1.58h0a1.58,1.58,0,0,1-1.58-1.58V22.56c0-2.79-1-5.16-4-5.16a4.53,4.53,0,0,0-4.22,3.15,3.83,3.83,0,0,0-.21,1.51v8.87a1.58,1.58,0,0,1-1.58,1.58h0a1.57,1.57,0,0,1-1.57-1.58V8.67A1.57,1.57,0,0,1,73.3,7.1Z"/><path class="cls-1" d="M91.59,20.59c0-1.46,0-2.77-.07-4a1.36,1.36,0,0,1,1.36-1.41h0a1.35,1.35,0,0,1,1.36,1.31l.07,2.08h.14a5.2,5.2,0,0,1,4.8-3.79h0a.89.89,0,0,1,.89.9v1.17a.9.9,0,0,1-.93.9h-.14c-2.22,0-3.8,1.68-4.23,4a9,9,0,0,0-.14,1.46V31a1.56,1.56,0,0,1-1.56,1.56h0A1.56,1.56,0,0,1,91.59,31Z"/><path class="cls-1" d="M106.94,10.32a1.86,1.86,0,0,1-2,1.93,1.87,1.87,0,0,1-1.9-1.93,1.92,1.92,0,0,1,2-2A1.87,1.87,0,0,1,106.94,10.32Zm-3.51,20.61V16.76A1.57,1.57,0,0,1,105,15.19h0a1.57,1.57,0,0,1,1.57,1.57V30.93A1.57,1.57,0,0,1,105,32.51h0A1.58,1.58,0,0,1,103.43,30.93Z"/><circle class="cls-1" cx="13.28" cy="36.71" r="1.93"/><circle class="cls-1" cx="19.12" cy="36.71" r="1.93"/></g></g></svg>