<svg xmlns="http://www.w3.org/2000/svg" viewBox="0 0 81.77 58"><defs><style>.cls-1{fill:#fff;}.cls-2{fill:#f39637;}</style></defs><title>Fichier 7</title><g id="Calque_2" data-name="Calque 2"><g id="Calque_1-2" data-name="Calque 1"><path id="Fill-1" class="cls-1" d="M74.83,2.21a6.32,6.32,0,0,1,6.25,6.25V49.62a6.32,6.32,0,0,1-6.25,6.25H9.9a6.32,6.32,0,0,1-6.24-6.25V8.46A6.32,6.32,0,0,1,9.9,2.21Z"/><g id="Group-5"><path id="Fill-3" class="cls-2" d="M8.42,4.35A4.08,4.08,0,0,0,4.35,8.42V49.58a4.08,4.08,0,0,0,4.07,4.07H73.35a4.08,4.08,0,0,0,4.07-4.07V8.42a4.08,4.08,0,0,0-4.07-4.07ZM73.35,58H8.42A8.46,8.46,0,0,1,0,49.58V8.42A8.46,8.46,0,0,1,8.42,0H73.35a8.46,8.46,0,0,1,8.42,8.42V49.58A8.46,8.46,0,0,1,73.35,58Z"/></g><path id="Fill-6" class="cls-2" d="M4.35,45.41H77.42V37H4.35Z"/><path id="Fill-8" class="cls-1" d="M14.13,25.44a2.72,2.72,0,0,1-2.72-2.72V15a2.72,2.72,0,0,1,2.72-2.71H24.72A2.72,2.72,0,0,1,27.44,15v7.74a2.72,2.72,0,0,1-2.72,2.72Z"/><path id="Fill-11" class="cls-2" d="M24.72,23.81H14a1.07,1.07,0,0,1-1.09-1.09v-2.3h3.94a1.63,1.63,0,0,0,0-3.26H13V14.85a1.07,1.07,0,0,1,1.09-1.09H24.86a1.06,1.06,0,0,1,1.08,1.09v2.31H22a1.63,1.63,0,1,0,0,3.26h3.81v2.3c.13.55-.41,1.09-1.09,1.09m0-13.31H14a4.3,4.3,0,0,0-4.35,4.35v7.74A4.3,4.3,0,0,0,14,26.94H24.72a4.3,4.3,0,0,0,4.35-4.35V14.85a4.3,4.3,0,0,0-4.35-4.35"/></g></g></svg>