<svg xmlns="http://www.w3.org/2000/svg" viewBox="0 0 69 65.55"><defs><style>.cls-1{fill:#f29537;}</style></defs><title>contact</title><g id="Calque_2" data-name="Calque 2"><g id="Calque_1-2" data-name="Calque 1"><path class="cls-1" d="M66.07,0H17.87a2.93,2.93,0,0,0-2.93,2.93v13.3l-2.21-3.31a3.4,3.4,0,0,0-4.6-1L3.6,14.61a6.63,6.63,0,0,0-3,3.94c-1.66,6-.43,16.4,14.8,31.64,12.11,12.1,21.15,15.36,27.37,15.36A16.2,16.2,0,0,0,47,65a6.67,6.67,0,0,0,3.94-3l2.72-4.54a3.4,3.4,0,0,0-1-4.59L41.77,45.58a3.43,3.43,0,0,0-4.59.75L34,50.39a1.11,1.11,0,0,1-1.41.3l-.6-.33c-2-1.08-4.44-2.43-9.42-7.4-.54-.54-1-1-1.48-1.53h45A2.93,2.93,0,0,0,69,38.51V2.93A2.93,2.93,0,0,0,66.07,0ZM30.91,52.38l.59.32a3.39,3.39,0,0,0,4.34-.9L39,47.74a1.1,1.1,0,0,1,1.49-.24l10.86,7.23a1.12,1.12,0,0,1,.34,1.5L49,60.77a4.42,4.42,0,0,1-2.58,2C41,64.26,31.44,63,17,48.55S1.29,24.6,2.78,19.16a4.42,4.42,0,0,1,2-2.58l4.54-2.72a1.13,1.13,0,0,1,1.5.34l7.24,10.86a1.11,1.11,0,0,1-.25,1.49l-4.06,3.16a3.39,3.39,0,0,0-.9,4.34l.33.59c1.15,2.11,2.58,4.73,7.79,9.94S28.8,51.23,30.91,52.38ZM66.7,38.51a.63.63,0,0,1-.63.63H19a28.91,28.91,0,0,1-3.83-5.6l-.34-.6a1.11,1.11,0,0,1,.3-1.41l4.07-3.16A3.43,3.43,0,0,0,20,23.78l-2.73-4.1V2.93a.62.62,0,0,1,.63-.63h48.2a.62.62,0,0,1,.63.63V38.51Z"/><path class="cls-1" d="M62.11,5.33,42.88,19.91a1.56,1.56,0,0,1-1.82,0L21.84,5.33a1.15,1.15,0,0,0-1.39,1.83L39.67,21.74a3.87,3.87,0,0,0,4.6,0L63.49,7.16a1.12,1.12,0,0,0,.45-.76,1.17,1.17,0,0,0-.22-.85A1.14,1.14,0,0,0,62.11,5.33Z"/><path class="cls-1" d="M32.15,21.83,20.37,34.45a1.15,1.15,0,0,0,.06,1.63A1.14,1.14,0,0,0,22.05,36L33.83,23.4a1.15,1.15,0,0,0-1.68-1.57Z"/><path class="cls-1" d="M51.86,21.83a1.15,1.15,0,0,0-1.63,0,1.14,1.14,0,0,0,0,1.62L62,36a1.14,1.14,0,0,0,1.62.06,1.15,1.15,0,0,0,.06-1.63Z"/></g></g></svg>