<svg xmlns="http://www.w3.org/2000/svg" viewBox="0 0 414.93 352.05"><defs><style>.cls-1{fill:#fff;}</style></defs><title>filtreicon</title><g id="Calque_2" data-name="Calque 2"><g id="filtreicon"><ellipse class="cls-1" cx="104.21" cy="27.34" rx="0.04" ry="0.08"/><path class="cls-1" d="M90.38,32.58h9.82a16.24,16.24,0,0,0-9.82,0Z"/><path class="cls-1" d="M95.29,64.27a16.22,16.22,0,0,0,4.91-.76H90.38A16.27,16.27,0,0,0,95.29,64.27Z"/><path class="cls-1" d="M49.81,32.58H15.46A15.46,15.46,0,0,0,0,48H0A15.47,15.47,0,0,0,15.46,63.51H49.81a48,48,0,0,1,0-30.93Z"/><path class="cls-1" d="M399.46,32.58H140.78a48,48,0,0,1,0,30.93H399.46A15.47,15.47,0,0,0,414.93,48h0A15.46,15.46,0,0,0,399.46,32.58Z"/><path class="cls-1" d="M95.29,64.27a16.27,16.27,0,0,1-4.91-.76H49.81a48,48,0,0,0,91,0H100.2A16.22,16.22,0,0,1,95.29,64.27Z"/><path class="cls-1" d="M95.29,31.82a16.22,16.22,0,0,1,4.91.76h40.58a48,48,0,0,0-91,0H90.38A16.27,16.27,0,0,1,95.29,31.82Z"/><path class="cls-1" d="M140.78,32.58H100.2a16.22,16.22,0,0,1,0,30.93h40.58a48,48,0,0,0,0-30.93Z"/><path class="cls-1" d="M79.07,48A16.22,16.22,0,0,1,90.38,32.58H49.81a48,48,0,0,0,0,30.93H90.38A16.23,16.23,0,0,1,79.07,48Z"/><path class="cls-1" d="M314.47,160.56h9.82a16.24,16.24,0,0,0-9.82,0Z"/><path class="cls-1" d="M319.38,192.25a16.27,16.27,0,0,0,4.91-.76h-9.82A16.27,16.27,0,0,0,319.38,192.25Z"/><path class="cls-1" d="M273.89,160.56H15.46a15.47,15.47,0,0,0,0,30.93H273.89a48.17,48.17,0,0,1,0-30.93Z"/><path class="cls-1" d="M399.46,160.56h-34.6a48,48,0,0,1,0,30.93h34.6a15.47,15.47,0,1,0,0-30.93Z"/><path class="cls-1" d="M319.38,192.25a16.27,16.27,0,0,1-4.91-.76H273.89a48,48,0,0,0,91,0H324.29A16.27,16.27,0,0,1,319.38,192.25Z"/><path class="cls-1" d="M319.38,159.8a16.27,16.27,0,0,1,4.91.76h40.57a48,48,0,0,0-91,0h40.58A16.27,16.27,0,0,1,319.38,159.8Z"/><path class="cls-1" d="M303.15,176a16.24,16.24,0,0,1,11.32-15.47H273.89a48.17,48.17,0,0,0,0,30.93h40.58A16.23,16.23,0,0,1,303.15,176Z"/><path class="cls-1" d="M364.86,160.56H324.29a16.23,16.23,0,0,1,0,30.93h40.57a48,48,0,0,0,0-30.93Z"/><path class="cls-1" d="M159.56,320.23a16,16,0,0,0,4.91-.76h-9.82A16,16,0,0,0,159.56,320.23Z"/><path class="cls-1" d="M154.65,288.54h9.82a16.24,16.24,0,0,0-9.82,0Z"/><path class="cls-1" d="M114.08,288.54H15.46a15.47,15.47,0,0,0,0,30.93h98.62a48,48,0,0,1,0-30.93Z"/><path class="cls-1" d="M399.46,288.54H205a48,48,0,0,1,0,30.93H399.46a15.47,15.47,0,1,0,0-30.93Z"/><path class="cls-1" d="M159.56,320.23a16,16,0,0,1-4.91-.76H114.08a48,48,0,0,0,91,0H164.47A16,16,0,0,1,159.56,320.23Z"/><path class="cls-1" d="M159.56,287.78a16.27,16.27,0,0,1,4.91.76H205a48,48,0,0,0-91,0h40.57A16.27,16.27,0,0,1,159.56,287.78Z"/><path class="cls-1" d="M143.34,304a16.24,16.24,0,0,1,11.31-15.47H114.08a48,48,0,0,0,0,30.93h40.57A16.22,16.22,0,0,1,143.34,304Z"/><path class="cls-1" d="M205,288.54H164.47a16.22,16.22,0,0,1,0,30.93H205a48,48,0,0,0,0-30.93Z"/></g></g></svg>