<svg xmlns="http://www.w3.org/2000/svg" viewBox="0 0 35.35 42"><defs><style>.cls-1{fill:#f29537;}</style></defs><title>Fichier 18</title><g id="Calque_2" data-name="Calque 2"><g id="Calque_1-2" data-name="Calque 1"><path class="cls-1" d="M3,17.66a14.73,14.73,0,0,0,28.59,5,14.42,14.42,0,0,0,.71-2.86,15.33,15.33,0,0,0,.16-2.05h-13a1.46,1.46,0,0,1-1.47-1.34,1.42,1.42,0,0,1,1.43-1.52H35.14a17.93,17.93,0,0,1,.21,2.76v.09A17.68,17.68,0,1,1,17.68,0h.7L33.84.13a1.46,1.46,0,0,1,1.45,1.46h0a1.47,1.47,0,0,1-1.48,1.47L17.68,2.94A14.72,14.72,0,0,0,3,17.66Z"/><path class="cls-1" d="M30,5.87H16.86l.07,0A11.78,11.78,0,1,0,28.37,22.64a11.43,11.43,0,0,0,.91-2.85H19.43a1.33,1.33,0,0,0-1,.41,1.44,1.44,0,0,0,1,2.44H25A8.84,8.84,0,1,1,17.69,8.82H33.83a1.47,1.47,0,0,0,1.48-1.47h0a1.48,1.48,0,0,0-1.48-1.48Z"/><circle class="cls-1" cx="14.43" cy="39.9" r="2.1"/><circle class="cls-1" cx="20.78" cy="39.9" r="2.1"/></g></g></svg>