<svg xmlns="http://www.w3.org/2000/svg" viewBox="0 0 49.29 43.85"><defs><style>.cls-1{fill:#f39637;}</style></defs><title>Fichier 11</title><g id="Calque_2" data-name="Calque 2"><g id="Calque_1-2" data-name="Calque 1"><path class="cls-1" d="M24.65,43.85a2.89,2.89,0,0,1-1.91-.71c-2-1.74-3.91-3.38-5.61-4.82h0c-5-4.23-9.26-7.89-12.24-11.49C1.55,22.8,0,19,0,14.81A15.42,15.42,0,0,1,3.91,4.29,13.24,13.24,0,0,1,13.77,0a12.41,12.41,0,0,1,7.74,2.67,16,16,0,0,1,3.14,3.27,15.74,15.74,0,0,1,3.13-3.27A12.41,12.41,0,0,1,35.52,0a13.24,13.24,0,0,1,9.86,4.29,15.42,15.42,0,0,1,3.91,10.52c0,4.17-1.55,8-4.89,12-3,3.6-7.27,7.26-12.23,11.49-1.7,1.44-3.62,3.08-5.62,4.83A2.89,2.89,0,0,1,24.65,43.85Zm-10.88-41A10.4,10.4,0,0,0,6,6.25a12.51,12.51,0,0,0-3.14,8.56c0,3.51,1.3,6.64,4.22,10.17s7,7,11.89,11.13h0c1.7,1.45,3.63,3.09,5.63,4.84,2-1.75,3.95-3.4,5.65-4.85C35.16,32,39.36,28.39,42.18,25s4.22-6.66,4.22-10.17a12.51,12.51,0,0,0-3.14-8.56,10.4,10.4,0,0,0-7.74-3.36,9.55,9.55,0,0,0-6,2.07,14.08,14.08,0,0,0-3.33,3.85,1.82,1.82,0,0,1-3.13,0A14.08,14.08,0,0,0,19.75,5,9.55,9.55,0,0,0,13.77,2.89Z"/></g></g></svg>