<svg xmlns="http://www.w3.org/2000/svg" viewBox="0 0 392.93 461.89"><defs><style>.cls-1{fill:none;stroke:#f29537;stroke-miterlimit:10;stroke-width:38px;}.cls-2{fill:#f29537;}</style></defs><title>Fichier 1</title><g id="Calque_2" data-name="Calque 2"><g id="Calque_1-2" data-name="Calque 1"><path class="cls-1" d="M30.66,19h338.7a4.56,4.56,0,0,1,4.56,4.56V438.32a4.56,4.56,0,0,1-4.56,4.56H23.56A4.56,4.56,0,0,1,19,438.32V30.66A11.66,11.66,0,0,1,30.66,19Z"/><rect class="cls-2" x="163.68" y="126.49" width="150.76" height="35.15"/><rect class="cls-2" x="163.68" y="213.37" width="150.76" height="35.15"/><rect class="cls-2" x="163.68" y="300.24" width="150.76" height="35.15"/><path class="cls-2" d="M86.61,113v64.9h64.9V113Zm33,45.37-6.83,6.83L92.5,144.86,99.33,138,112.8,151.5l24.93-24.93,6.82,6.83-24.93,24.93Z"/><path class="cls-2" d="M86.61,198.49v64.9h64.9v-64.9Zm33,45.37-6.83,6.83L92.5,230.38l6.83-6.83L112.8,237l24.93-24.93,6.82,6.83-24.93,24.93Z"/><path class="cls-2" d="M86.61,284v64.91h64.9V284Zm33,45.37-6.83,6.83L92.5,315.9l6.83-6.83,13.47,13.47,24.93-24.93,6.82,6.83-24.93,24.93Z"/></g></g></svg>