<svg xmlns="http://www.w3.org/2000/svg" viewBox="0 0 57 57.02"><defs><style>.cls-1{fill:#fed2a4;}.cls-2{fill:#ffe781;}.cls-3{fill:#e87288;}</style></defs><title>livraisoncashicon</title><g id="Calque_2" data-name="Calque 2"><g id="Calque_1-2" data-name="Calque 1"><path class="cls-1" d="M54.65,25.62A3.33,3.33,0,0,0,50,26l-7.62,7.83h0a3.4,3.4,0,0,0-3.27-2.45H26.47a13.19,13.19,0,0,0-5.34-1.12c-5.27,0-9.83,2.56-12,7.4l10.06,10h0L20.94,46A4.46,4.46,0,0,1,24,44.76H38.87a8.9,8.9,0,0,0,6.19-2.52L55,30.31A3.33,3.33,0,0,0,54.65,25.62Z"/><path class="cls-2" d="M44.28,12.25A11.13,11.13,0,1,1,33.15,1.11,11.13,11.13,0,0,1,44.28,12.25Z"/><path class="cls-3" d="M19,50.59,13.59,55.9,1.09,43.31,6.38,38a2.23,2.23,0,0,1,3.15,0L19,47.44A2.24,2.24,0,0,1,19,50.59Z"/><path d="M26.2,38.67a1.11,1.11,0,1,0-1.57,0A1.1,1.1,0,0,0,26.2,38.67Z"/><path d="M20.93,12.25A12.25,12.25,0,1,0,33.18,0,12.25,12.25,0,0,0,20.93,12.25Zm22.27,0a10,10,0,1,1-10-10A10,10,0,0,1,43.2,12.25Z"/><path d="M12.82,56.69a1.12,1.12,0,0,0,1.57,0l5.4-5.32a3.36,3.36,0,0,0,.8-3.45l1.16-1.12a3.27,3.27,0,0,1,2.31-.94h14.8a10,10,0,0,0,7-2.84c.08-.08-.58.71,10.1-12.06a4.45,4.45,0,0,0-6.78-5.78L42.6,31.94a4.47,4.47,0,0,0-3.46-1.66H26.73a14.36,14.36,0,0,0-5.58-1.11A13.77,13.77,0,0,0,8.6,36.29a3.33,3.33,0,0,0-3,.92L.32,42.52a1.12,1.12,0,0,0,0,1.57ZM21.15,31.4a12.05,12.05,0,0,1,4.9,1,1.17,1.17,0,0,0,.45.09H39.14a2.23,2.23,0,1,1,0,4.45H30.06a1.12,1.12,0,0,0,0,2.23h9.08a4.46,4.46,0,0,0,4.46-4.45,5.85,5.85,0,0,0,0-.59l7.29-7.49a2.22,2.22,0,1,1,3.4,2.87l-10,11.94a7.75,7.75,0,0,1-5.4,2.17H24.06A5.55,5.55,0,0,0,20.2,45.2l-.95.92-8.72-8.73C12.57,33.57,16.4,31.4,21.15,31.4ZM7.2,38.78a1.12,1.12,0,0,1,1.38-.15c.19.11-.37-.39,9.64,9.6a1.12,1.12,0,0,1,0,1.57l-4.6,4.53-10.94-11Z"/><path d="M31.81,5.6V6.87a3.34,3.34,0,0,0,1.1,6.49,1.12,1.12,0,1,1,0,2.23,2,2,0,0,1-1.43-.83,1.15,1.15,0,0,0-1.44-.26,1.12,1.12,0,0,0-.28,1.68,4.65,4.65,0,0,0,2,1.45v1.26A1.14,1.14,0,0,0,32.76,20,1.11,1.11,0,0,0,34,18.93V17.62A3.34,3.34,0,0,0,33,11.13a1.13,1.13,0,0,1-1.13-1,1.11,1.11,0,0,1,1.11-1.24,1.76,1.76,0,0,1,1.17.55,1.14,1.14,0,0,0,1.46.13,1.11,1.11,0,0,0,.12-1.7,4.33,4.33,0,0,0-1.64-1V5.57a1.11,1.11,0,0,0-1.28-1.1A1.12,1.12,0,0,0,31.81,5.6Z"/></g></g></svg>