<svg xmlns="http://www.w3.org/2000/svg" viewBox="0 0 57 46.08"><defs><style>.cls-1{fill:#146aa8;}.cls-2{fill:#126099;}.cls-3{fill:#4398d1;}.cls-4{fill:#3e8cc7;}.cls-5{fill:#fdb62f;}.cls-6{fill:#fd7b2f;}.cls-7{fill:#de4c3c;}.cls-8{fill:#87ced9;}</style></defs><title>mastercardicon</title><g id="Calque_2" data-name="Calque 2"><g id="Calque_1-2" data-name="Calque 1"><path class="cls-1" d="M53.61,33.17,57,11.84a4,4,0,0,0-3.29-4.55h0L8.57.05A4,4,0,0,0,4,3.34l-1.6,10V33.05Z"/><path class="cls-2" d="M53.66,7.29,40.85,5.23c-8.6,13.16-22.5,22.28-33.17,27.83l45.93.11L57,11.84a4,4,0,0,0-3.29-4.55Z"/><path class="cls-3" d="M4,12.33H49.64a4,4,0,0,1,4,4V42.11a4,4,0,0,1-4,4H4a4,4,0,0,1-4-4V16.3A4,4,0,0,1,4,12.33Z"/><path class="cls-4" d="M49.64,12.33h-.8C39.47,29,22,40.38,11.27,46.08H49.64a4,4,0,0,0,4-4V16.3A4,4,0,0,0,49.64,12.33Z"/><rect class="cls-5" x="4.96" y="17.29" width="9.93" height="7.94"/><rect class="cls-6" x="4.96" y="20.27" width="2.98" height="1.99"/><rect class="cls-6" x="11.91" y="20.27" width="2.98" height="1.99"/><circle class="cls-5" cx="43.68" cy="36.15" r="4.96"/><circle class="cls-7" cx="37.72" cy="36.15" r="4.96"/><rect class="cls-8" x="3.97" y="32.18" width="5.96" height="1.99"/><rect class="cls-8" x="13.9" y="32.18" width="5.96" height="1.99"/><rect class="cls-8" x="23.83" y="32.18" width="5.96" height="1.99"/><rect class="cls-8" x="3.97" y="38.14" width="25.81" height="1.99"/><rect class="cls-8" x="34.75" y="17.29" width="1.99" height="3.97"/><rect class="cls-8" x="38.72" y="17.29" width="1.99" height="3.97"/><rect class="cls-8" x="42.69" y="17.29" width="1.99" height="3.97"/><rect class="cls-8" x="46.66" y="17.29" width="1.99" height="3.97"/></g></g></svg>