<svg xmlns="http://www.w3.org/2000/svg" viewBox="0 0 52.37 45"><defs><style>.cls-1{fill:#f39637;}</style></defs><title>Fichier 12</title><g id="Calque_2" data-name="Calque 2"><g id="Calque_1-2" data-name="Calque 1"><path class="cls-1" d="M26.18,22.5a1,1,0,1,0-1-1A1,1,0,0,0,26.18,22.5Z"/><path class="cls-1" d="M48.27,14.32h-6L32.92,1.52a3.07,3.07,0,0,0-5.33,3l.08.12L35,14.32H17.4l7.29-9.64.08-.12a3.07,3.07,0,0,0-5.33-3l-9.3,12.8H4.09a4.09,4.09,0,0,0-1.31,8,1,1,0,0,0,.63.22h.13a1,1,0,0,1,.87.83L7.89,42.48a3.08,3.08,0,0,0,3,2.52H41.45a3.06,3.06,0,0,0,3-2.52L48,23.34a1,1,0,0,1,.87-.83H49a1,1,0,0,0,.63-.22,4.09,4.09,0,0,0-1.32-8ZM29.35,3.51a1,1,0,0,1,1.82-.94l.06.1L39.7,14.32H37.53Zm-8.22-.84a.36.36,0,0,0,.07-.1,1,1,0,0,1,1.39-.4A1,1,0,0,1,23,3.51L14.83,14.32H12.67ZM48.27,20.45h-18a1,1,0,0,0-1,1,1,1,0,0,0,1,1H46.06a3.59,3.59,0,0,0-.12.47L42.46,42.11a1,1,0,0,1-1,.84H10.91a1,1,0,0,1-1-.83L6.43,23a3.62,3.62,0,0,0-.13-.47H22.09a1,1,0,0,0,0-2.05h-18a2,2,0,0,1,0-4.09H48.27a2,2,0,1,1,0,4.09Z"/><path class="cls-1" d="M26.18,25.57a3.07,3.07,0,0,0-3.07,3.07v8.18a3.07,3.07,0,0,0,6.14,0V28.64A3.06,3.06,0,0,0,26.18,25.57Zm1,11.25a1,1,0,0,1-2.05,0V28.64a1,1,0,1,1,2.05,0Z"/><path class="cls-1" d="M36.41,39.89a3.08,3.08,0,0,0,3.07-3.07V28.64a3.07,3.07,0,1,0-6.14,0v8.18A3.08,3.08,0,0,0,36.41,39.89Zm-1-11.25a1,1,0,1,1,2,0v8.18a1,1,0,0,1-2,0Z"/><path class="cls-1" d="M16,25.57a3.06,3.06,0,0,0-3.06,3.07v8.18a3.07,3.07,0,1,0,6.13,0V28.64A3.06,3.06,0,0,0,16,25.57Zm1,11.25a1,1,0,0,1-2.05,0V28.64a1,1,0,1,1,2.05,0Z"/></g></g></svg>