<svg xmlns="http://www.w3.org/2000/svg" viewBox="0 0 52.64 44.82"><defs><style>.cls-1{fill:#989592;}</style></defs><title>panier4</title><g id="Calque_2" data-name="Calque 2"><g id="Calque_1-2" data-name="Calque 1"><g id="Calque_1-2-2" data-name="Calque 1-2"><path class="cls-1" d="M26.3,22.32a1,1,0,1,0,0-2,1,1,0,0,0,0,2Z"/><path class="cls-1" d="M48.39,14.14h-6L33,1.34a3.07,3.07,0,0,0-5.33,3l.08.12,7.33,9.68H17.52L24.81,4.5l.08-.12a3.07,3.07,0,0,0-5.33-3l-9.3,12.8h-6a4.09,4.09,0,0,0-1.31,8,1,1,0,0,0,.63.22h.13a1,1,0,0,1,.87.83L8,42.3a3.07,3.07,0,0,0,3,2.52H41.57a3.08,3.08,0,0,0,3-2.52l3.55-19.14a1,1,0,0,1,.87-.83h.13a1,1,0,0,0,.63-.22,4.09,4.09,0,0,0-1.32-8ZM29.47,3.33a1,1,0,0,1,1.82-.94l.06.1,8.47,11.65H37.65Zm-8.22-.84.07-.1A1,1,0,0,1,22.67,2l0,0a1,1,0,0,1,.41,1.34L15,14.14H12.79ZM48.39,20.27h-18a1,1,0,0,0,0,2H46.18a1.91,1.91,0,0,0-.12.47L42.58,41.93a1,1,0,0,1-1,.84H11a1,1,0,0,1-1-.83L6.55,22.82c0-.16-.08-.32-.13-.47H22.21a1,1,0,0,0,0-2.05h-18a2,2,0,1,1,0-4.09H48.39a2,2,0,0,1,0,4.09Z"/><path class="cls-1" d="M26.3,25.39a3.06,3.06,0,0,0-3.07,3.07v8.18a3.07,3.07,0,0,0,6.14,0V28.46a3.06,3.06,0,0,0-3.05-3.07Zm1,11.25a1,1,0,0,1-2.05,0V28.46a1,1,0,1,1,2.05,0Z"/><path class="cls-1" d="M36.53,39.71a3.09,3.09,0,0,0,3.07-3.07V28.46a3.07,3.07,0,1,0-6.14,0h0v8.18A3.08,3.08,0,0,0,36.53,39.71Zm-1-11.25a1,1,0,0,1,2,0v8.18a1,1,0,0,1-2,0Z"/><path class="cls-1" d="M16.12,25.39a3.06,3.06,0,0,0-3.06,3.06h0v8.18a3.07,3.07,0,1,0,6.13.35V28.46a3.06,3.06,0,0,0-3.05-3.07Zm1,11.25a1,1,0,0,1-2.05,0V28.46a1,1,0,1,1,2.05,0Z"/></g></g></g></svg>