<svg xmlns="http://www.w3.org/2000/svg" viewBox="0 0 24.64 24.64"><defs><style>.cls-1{fill:#333333;}</style></defs><title>whatsapp</title><g id="Calque_2" data-name="Calque 2"><g id="Calque_1-2" data-name="Calque 1"><path class="cls-1" d="M12.32,0A12.32,12.32,0,1,0,24.64,12.32,12.33,12.33,0,0,0,12.32,0Zm.26,19.49h0a7.46,7.46,0,0,1-3.53-.89l-3.9,1,1-3.82a7.38,7.38,0,0,1,6.39-11A7.37,7.37,0,0,1,20,12.12,7.39,7.39,0,0,1,12.58,19.49Z"/><path class="cls-1" d="M12.58,6a6.13,6.13,0,0,0-5.19,9.39l.15.23-.62,2.26,2.32-.61.22.13a6.1,6.1,0,0,0,3.12.86h0A6.13,6.13,0,1,0,12.58,6Zm3.61,8.76a1.92,1.92,0,0,1-1.24.88,2.7,2.7,0,0,1-1.17-.08,9.67,9.67,0,0,1-1-.38,8.17,8.17,0,0,1-3.14-2.79,3.46,3.46,0,0,1-.76-1.9,2.07,2.07,0,0,1,.65-1.54A.7.7,0,0,1,10,8.71h.35c.12,0,.27,0,.42.31s.52,1.28.57,1.37a.36.36,0,0,1,0,.32,4.1,4.1,0,0,1-.46.63c-.08.11-.19.2-.08.38a5.53,5.53,0,0,0,1,1.28,5,5,0,0,0,1.48.91c.18.09.29.08.4-.05s.46-.53.58-.72.25-.15.41-.09,1.08.51,1.26.6a1,1,0,0,1,.36.21A1.66,1.66,0,0,1,16.19,14.75Z"/></g></g></svg>